<svg xmlns="http://www.w3.org/2000/svg" fill="none" viewBox="0 0 41 41" height="41" width="41">
<g clip-path="url(#clip0_652_234)">
<rect fill="white" height="41" width="41"></rect>
<path fill="white" d="M38.1725 6.71545H2.82765C1.46122 6.71545 0.353516 7.82316 0.353516 9.18959V31.8103C0.353516 33.1767 1.46122 34.2844 2.82765 34.2844H38.1725C39.5389 34.2844 40.6466 33.1767 40.6466 31.8103V9.18959C40.6466 7.82316 39.5389 6.71545 38.1725 6.71545Z"></path>
<path fill="#D13239" d="M6.73907 20.3475C6.83832 20.388 6.92838 20.4394 6.99087 20.5056C7.03866 20.5552 7.07542 20.6067 7.10667 20.6637C7.19489 20.8254 7.21143 20.9945 7.20959 21.1066C7.20959 21.1875 7.19856 21.2389 7.19856 21.2389C7.19856 21.2389 7.19305 21.2831 7.18386 21.3529C7.1618 21.5128 7.11953 21.8142 7.07726 22.066C7.03866 22.2939 6.99271 22.4814 6.99271 22.4814C6.99271 22.4814 6.88059 22.9868 6.46154 23.2092C6.0425 23.4316 5.45068 23.4077 5.45068 23.4077L3.93255 23.4004L3.62378 25.275H2.84082L3.67892 20.2134H4.61442H5.87157C5.87157 20.2134 5.93038 20.2134 6.02228 20.2171C6.12153 20.2207 6.26121 20.2318 6.40457 20.2575C6.51852 20.2777 6.63431 20.3071 6.73907 20.3475ZM6.22629 22.2958C6.31819 21.8142 6.38803 21.408 6.38803 21.3988C6.38803 21.3979 6.38839 21.3952 6.38895 21.3911C6.39177 21.3701 6.39966 21.3118 6.39354 21.2445C6.38803 21.1893 6.37332 21.1268 6.33473 21.079C6.30532 21.0423 6.21342 21.0184 6.09763 21.0037C5.96347 20.9853 5.79989 20.9798 5.67675 20.978C5.56831 20.9761 5.49112 20.978 5.49112 20.978L4.34241 20.9743L4.06304 22.656L5.33122 22.6597C5.33122 22.6597 5.61977 22.6707 5.88811 22.6137C6.04985 22.5788 6.19137 22.4795 6.22629 22.2958ZM13.0101 21.6212L10.1356 21.6249L10.0198 22.338H11.8596L9.55479 24.5454L9.42981 25.275L12.4017 25.2732L12.5194 24.5674L10.5013 24.5711L12.9053 22.2755L13.0101 21.6212ZM16.9084 20.2134H17.6619L16.8183 25.275L16.0629 25.2732L16.9084 20.2134ZM21.6521 21.6231L20.9297 21.6249L21.2973 25.275L22.1722 25.2714L23.2952 22.7166L23.5525 25.2714H24.442L26.0337 21.6231H25.2838L24.1737 24.2017L23.9109 21.6212L23.0195 21.6194L21.9075 24.1925L21.6521 21.6231ZM14.6293 21.5753C14.9399 21.5716 15.3057 21.5863 15.517 21.6543C16.1456 21.8602 16.232 22.384 16.1107 23.0714L16.0059 23.6779L13.5523 23.6852C13.5523 23.6852 13.5045 23.7973 13.4843 24.2274C13.4824 24.2384 13.4824 24.2458 13.4824 24.2513C13.4482 24.6033 13.8367 24.6106 13.9564 24.6128C13.9655 24.613 13.973 24.6131 13.9787 24.6134L14.0034 24.6147C14.102 24.6197 14.3239 24.6313 14.7083 24.5877C15.1311 24.5399 15.1733 24.0234 15.1733 24.0234L15.9545 24.0216L15.9067 24.2182L15.9055 24.2232C15.8992 24.2504 15.8734 24.361 15.8019 24.5141C15.7247 24.6796 15.6163 24.8192 15.6163 24.8192C15.6163 24.8192 15.3737 25.1427 14.9142 25.2511C14.4547 25.3596 13.8445 25.3118 13.8445 25.3118C13.8445 25.3118 13.5541 25.3192 13.2123 25.1868C12.8704 25.0563 12.7767 24.7751 12.7234 24.4737C12.6701 24.1704 12.8502 23.2643 12.8502 23.2643C12.8502 23.2643 12.9403 22.4446 13.2435 22.0697C13.5468 21.6948 14.0798 21.6176 14.0798 21.6176C14.1919 21.5937 14.3297 21.579 14.6293 21.5753ZM13.6718 22.9831L15.3535 22.985C15.3535 22.985 15.416 22.6836 15.3571 22.4851C15.3314 22.4005 15.2358 22.3435 15.1347 22.3233C14.8315 22.2608 14.4584 22.2884 14.3187 22.3013C14.179 22.3141 14.0302 22.3307 13.9125 22.4189C13.7967 22.5071 13.7379 22.7166 13.7379 22.7166L13.6718 22.9831ZM20.1468 21.6562C19.9354 21.5882 19.5697 21.5734 19.2591 21.5771C18.9595 21.5808 18.8216 21.5955 18.7095 21.6194C18.7095 21.6194 18.1765 21.6966 17.8733 22.0715C17.57 22.4465 17.4799 23.2662 17.4799 23.2662C17.4799 23.2662 17.2998 24.1723 17.3531 24.4755C17.4064 24.777 17.5002 25.0582 17.842 25.1887C18.1839 25.321 18.4743 25.3136 18.4743 25.3136C18.4743 25.3136 19.0845 25.3614 19.5439 25.253C20.0034 25.1445 20.246 24.8211 20.246 24.8211C20.246 24.8211 20.3545 24.6814 20.4317 24.516C20.5031 24.3629 20.5289 24.2522 20.5352 24.225L20.5364 24.2201L20.5842 24.0234L19.8031 24.0252C19.8031 24.0252 19.7608 24.5417 19.3381 24.5895C18.9714 24.6311 18.7526 24.6226 18.6477 24.6184C18.6321 24.6178 18.6191 24.6173 18.6084 24.6171C18.6029 24.6168 18.5957 24.6166 18.5871 24.6165C18.4683 24.6141 18.0779 24.6061 18.1122 24.255C18.1122 24.2495 18.1122 24.2421 18.114 24.2311C18.1343 23.801 18.182 23.6889 18.182 23.6889L20.6357 23.6816L20.7404 23.075C20.8617 22.3858 20.7754 21.8602 20.1468 21.6562ZM19.9759 22.985L18.2942 22.9831L18.3603 22.7166C18.3603 22.7166 18.4191 22.5071 18.5349 22.4189C18.6507 22.3307 18.8014 22.3141 18.9411 22.3013C19.0808 22.2884 19.4539 22.2608 19.7571 22.3233C19.8582 22.3435 19.9538 22.4005 19.9795 22.4851C20.0383 22.6817 19.9759 22.985 19.9759 22.985ZM26.9012 21.6249L27.3846 24.2936L28.7501 21.6231L29.5184 21.6304L27.55 25.4441C27.55 25.4441 27.1934 26.1352 26.9729 26.3098C26.7523 26.4844 26.6163 26.5634 26.4362 26.5818L26.3879 26.5868C26.2413 26.6022 26.1662 26.6101 26.0098 26.5818L25.826 26.5487L25.9399 25.8669C25.9399 25.8669 26.245 25.9238 26.4252 25.8522C26.6071 25.7805 26.7523 25.4717 26.7523 25.4717L26.8442 25.3173L26.1329 21.6231L26.9012 21.6249ZM8.34176 21.8749C8.5862 21.7407 8.87292 21.6212 9.17618 21.6212H9.6136L9.48863 22.327L9.07325 22.3288C8.47776 22.3288 8.17267 22.8343 8.09915 23.2423L7.74259 25.2548H6.93757L7.58085 21.6212H8.38403L8.34176 21.8749Z" clip-rule="evenodd" fill-rule="evenodd"></path>
<path fill="#B3B2B1" d="M23.9182 16.7342L24.8519 14.8577C24.8519 14.8577 26.8975 14.8173 28.6619 15.0911C30.4263 15.3631 32.04 15.7822 32.0051 15.8006L27.5316 18.1402C27.5316 18.1402 26.4858 17.4786 25.1882 17.0724C24.453 16.8555 23.9182 16.7342 23.9182 16.7342ZM18.0037 15.852L18.1986 16.9456C18.1986 16.9456 19.0991 16.7067 20.178 16.578C21.5638 16.3887 23.0397 16.5909 23.0397 16.5909L23.5947 14.9018C23.5947 14.9018 21.9167 15.0139 20.6504 15.2492C19.3859 15.4844 18.0037 15.852 18.0037 15.852ZM13.839 18.7376L12.7197 17.984C12.7197 17.984 13.7324 17.4087 15.0796 16.8721C16.425 16.3354 17.1436 16.1112 17.1436 16.1112L17.3715 17.179C17.3715 17.179 16.0757 17.6128 15.3332 17.9638C14.565 18.2909 13.839 18.7376 13.839 18.7376ZM11.0655 20.6306H8.65234C8.65234 20.6306 9.59336 19.9102 10.0676 19.5996C10.5564 19.2632 11.7088 18.5501 11.7088 18.5501L13.0726 19.1879C13.0726 19.1879 12.3742 19.6308 11.99 19.912C11.6059 20.1932 11.0655 20.6306 11.0655 20.6306ZM29.7977 21.987L30.5899 21.9889L30.6377 21.6819C30.6377 21.6819 30.7222 21.1269 30.9115 21.0203C30.9722 20.9854 31.0696 20.9541 31.1817 20.9339C31.3894 20.8971 31.6522 20.8935 31.8673 20.9008L31.8851 20.9014C32.2009 20.912 32.3274 20.9162 32.6557 20.9541C32.9902 20.9927 32.9057 21.3162 32.9057 21.3162L32.8395 21.7996C32.8395 21.7996 32.8101 22.0164 32.7329 22.1506C32.6649 22.2701 32.4774 22.3509 32.369 22.3859C32.108 22.4704 31.2148 22.6983 31.2148 22.6983L30.5127 22.9005C30.5127 22.9005 30.0808 23.0255 29.84 23.292C29.5974 23.5603 29.5018 23.8636 29.4687 24.0216C29.4357 24.1797 29.25 25.2732 29.25 25.2732L33.0398 25.2751L33.1667 24.5179L30.169 24.5215L30.2223 24.2128C30.2223 24.2128 30.2572 23.8948 30.3859 23.79C30.3921 23.7849 30.3979 23.7796 30.404 23.7738C30.4378 23.7424 30.4834 23.6998 30.6855 23.6283C30.8288 23.5768 31.3177 23.4463 31.3177 23.4463L32.448 23.1376C32.448 23.1376 33.0656 22.9795 33.3082 22.6413C33.5508 22.305 33.6445 21.6599 33.6445 21.6599C33.6445 21.6599 33.7107 21.0331 33.6592 20.8365C33.6096 20.6398 33.424 20.4046 33.1979 20.3035C32.9718 20.2024 32.7366 20.1436 32.0547 20.1528C31.3728 20.162 31.0347 20.1932 30.6891 20.3219C30.3436 20.4487 30.1433 20.6803 30.0165 21.0074C29.8786 21.318 29.7977 21.987 29.7977 21.987ZM36.9326 23.3949L37.4637 20.2116H36.5227L33.5931 23.3581L33.4607 24.1558H36.0228L35.8353 25.2732L36.622 25.2751L36.8076 24.1558L37.5336 24.1576L37.6641 23.3949H36.9326ZM36.1496 23.3967L34.4937 23.3949L36.5099 21.2463L36.1496 23.3967ZM29.3162 19.3955L28.3329 18.6493L33.9349 16.4879L33.9783 16.5077C34.6914 16.8314 35.0885 17.0117 35.7876 17.4657C36.0669 17.6477 36.4382 17.9381 36.5319 18.03C36.7874 18.2854 37.0318 18.5317 37.166 18.7633C37.381 19.1346 37.3976 19.3955 37.3976 19.3955H29.3162Z" clip-rule="evenodd" fill-rule="evenodd"></path>
</g>
<defs>
<clipPath id="clip0_652_234">
<rect fill="white" height="41" width="41"></rect>
</clipPath>
</defs>
</svg>
